# xmcd
#
# Track frame offsets: 
#        150
#        14031
#        29887
#        41869
#        57314
#        69499
#        85105
#        97860
#        113221
#        125537
#        137976
#        153533
#
# Disc length: 2235 seconds
#
# Revision: 0
# Processed by: cddbd v1.5.2PL0 Copyright (c) Steve Scherf et al.
# Submitted via: ExactAudioCopyFreeDBPlugin 1.0
#
DISCID=ad08b90c
DTITLE=Kevin Fisher - Beer Me
DYEAR=2017
DGENRE=Americana
TTITLE0=Beer
TTITLE1=Beer Me
TTITLE2=Dog Beers
TTITLE3=I Wish You Were Beer
TTITLE4=Better Beer
TTITLE5=To Beer Or Not To Beer
TTITLE6=I Like Beer
TTITLE7=Beer In The Fridge
TTITLE8=Beerly Beloved
TTITLE9=Beer Thirsty
TTITLE10=Beer Blue Sky
TTITLE11=Last Call
EXTD=
EXTT0=
EXTT1=
EXTT2=
EXTT3=
EXTT4=
EXTT5=
EXTT6=
EXTT7=
EXTT8=
EXTT9=
EXTT10=
EXTT11=
PLAYORDER=
